<?xml version="1.0" encoding="iso-8859-1"?>
<!-- Generator: Adobe Illustrator 19.0.0, SVG Export Plug-In . SVG Version: 6.00 Build 0)  -->
<svg version="1.1" id="Capa_1" xmlns="http://www.w3.org/2000/svg" xmlns:xlink="http://www.w3.org/1999/xlink" x="0px" y="0px"
	 viewBox="0 0 512.001 512.001" style="enable-background:new 0 0 512.001 512.001;" xml:space="preserve">
<path style="fill:#B4DEB2;" d="M511.257,197.652L486.861,62.721c-1.571-8.72-5.598-16.611-11.324-22.931
	c-6.773-7.495-15.938-12.782-26.258-14.65L314.348,0.744c-15.033-2.717-30.461,2.109-41.261,12.91L13.634,273.105
	c-18.182,18.182-18.174,47.758,0,65.933l159.328,159.328c18.175,18.175,47.751,18.182,65.934,0l259.452-259.452
	C509.148,228.114,513.975,212.685,511.257,197.652z M361.774,153.552c-0.659-0.574-1.302-1.175-1.932-1.805
	c-16.023-16.023-16.03-42.104-0.007-58.127c16.03-16.03,42.111-16.023,58.134,0c0.63,0.63,1.231,1.274,1.805,1.932
	c14.198,16.123,13.589,40.795-1.812,56.195C402.569,167.142,377.896,167.75,361.774,153.552z"/>
<path style="fill:#86C983;" d="M498.348,238.915L238.895,498.367c-18.182,18.182-47.758,18.174-65.934,0l-78-78l266.813-266.813
	c16.123,14.198,40.795,13.589,56.188-1.805c15.401-15.401,16.009-40.072,1.812-56.195l55.763-55.763
	c5.725,6.32,9.753,14.212,11.324,22.931l24.396,134.932C513.975,212.685,509.148,228.114,498.348,238.915z"/>
<g>
	<path style="fill:#FFFCE5;" d="M192.043,386.769c0.63-2.13,0.255-3.878-1.125-5.259l-23.2-23.2l13.581-13.581
		c1.373-1.373,1.89-2.966,1.521-4.763c-0.354-1.798-1.224-3.39-2.604-4.77l-0.042-0.042c-1.486-1.472-3.135-2.371-4.947-2.696
		c-1.833-0.332-3.404,0.163-4.72,1.479l-13.581,13.581l-15.196-15.196l23.292-23.292c1.316-1.316,1.756-2.945,1.302-4.897
		c-0.445-1.946-1.543-3.793-3.277-5.527c-1.62-1.62-3.39-2.668-5.315-3.15c-1.911-0.481-3.567-0.028-4.94,1.344l-31.204,31.204
		c-1.678,1.678-2.739,3.489-3.192,5.443c-0.446,1.947,0.021,3.616,1.394,4.989l57.101,57.101c1.38,1.38,3.135,1.749,5.259,1.125
		c2.13-0.63,4.148-1.911,6.065-3.829C190.132,390.917,191.413,388.9,192.043,386.769z"/>
	<path style="fill:#FFFCE5;" d="M237.226,335.203l-21.672-21.672l5.938-5.938l36.23,11.599c2.639,0.842,5.011,0.212,7.105-1.883
		c2.102-2.102,3.312-4.869,3.638-8.324c0.332-3.447-0.375-6.037-2.109-7.771c-0.659-0.659-1.352-1.055-2.067-1.175l-30.844-8.903
		c1.685-3.821,2.378-7.601,2.074-11.331c-0.502-6.065-3.652-12.004-9.449-17.8c-12.825-12.825-26.618-11.869-41.36,2.874
		l-18.614,18.614c-1.26,1.26-1.869,2.717-1.84,4.36c0.028,1.656,0.616,3.051,1.756,4.19l57.186,57.186
		c1.38,1.38,3.128,1.756,5.259,1.125c2.13-0.63,4.148-1.911,6.065-3.829c1.918-1.918,3.199-3.935,3.829-6.065
		C238.98,338.331,238.606,336.583,237.226,335.203z M204.761,302.738l-16.724-16.724l8.903-8.903
		c2.632-2.632,5.287-3.999,7.955-4.091c2.675-0.085,5.499,1.366,8.5,4.367c2.994,2.994,4.452,5.824,4.36,8.493
		c-0.092,2.668-1.458,5.322-4.091,7.955L204.761,302.738z"/>
	<path style="fill:#FFFCE5;" d="M319.494,257.96c-0.474-1.918-1.528-3.68-3.15-5.301c-1.734-1.734-3.581-2.831-5.52-3.284
		c-1.954-0.453-3.581-0.014-4.904,1.309l-24.092,24.092l-15.287-15.287l13.482-13.482c1.38-1.38,1.89-2.966,1.528-4.77
		c-0.354-1.798-1.231-3.383-2.611-4.763l-0.042-0.042c-1.486-1.472-3.135-2.371-4.94-2.703c-1.84-0.325-3.411,0.17-4.728,1.486
		l-13.482,13.482l-15.196-15.196l24.092-24.092c1.323-1.323,1.763-2.952,1.309-4.904c-0.453-1.939-1.55-3.786-3.284-5.52
		c-1.62-1.62-3.383-2.675-5.308-3.157c-1.918-0.474-3.567-0.028-4.947,1.352l-32.004,32.004c-1.685,1.685-2.746,3.496-3.192,5.443
		c-0.453,1.954,0.021,3.616,1.394,4.99l57.101,57.101c1.38,1.38,3.036,1.848,4.99,1.394c1.947-0.446,3.751-1.514,5.436-3.199
		l32.004-32.004C319.522,261.527,319.975,259.884,319.494,257.96z"/>
	<path style="fill:#FFFCE5;" d="M367.96,209.493c-0.481-1.911-1.528-3.68-3.15-5.301c-1.734-1.734-3.581-2.832-5.528-3.277
		c-1.954-0.453-3.581-0.014-4.897,1.302l-24.099,24.099l-15.287-15.287l13.489-13.489c1.38-1.38,1.89-2.966,1.521-4.763
		c-0.354-1.798-1.224-3.39-2.604-4.77l-0.042-0.042c-1.486-1.472-3.135-2.371-4.947-2.696c-1.833-0.332-3.404,0.163-4.72,1.479
		l-13.49,13.49l-15.196-15.196l24.099-24.099c1.316-1.316,1.756-2.945,1.302-4.897c-0.445-1.947-1.543-3.793-3.277-5.527
		c-1.62-1.62-3.39-2.668-5.308-3.157c-1.918-0.474-3.567-0.028-4.947,1.352l-32.011,32.011c-1.678,1.678-2.738,3.489-3.192,5.443
		c-0.446,1.947,0.021,3.616,1.394,4.99l57.101,57.101c1.38,1.38,3.043,1.84,4.99,1.394c1.954-0.453,3.758-1.521,5.435-3.199
		l32.011-32.011C367.989,213.06,368.441,211.419,367.96,209.493z"/>
</g>
<g>
	<path style="fill:#FFE89C;" d="M192.043,386.769c-0.63,2.13-1.911,4.148-3.829,6.065c-1.918,1.918-3.935,3.199-6.065,3.829
		c-2.123,0.623-3.878,0.254-5.259-1.125l-28.551-28.551l31.835-31.835l0.042,0.042c1.38,1.38,2.251,2.973,2.604,4.77
		c0.368,1.798-0.148,3.39-1.521,4.763l-13.581,13.581l23.2,23.2C192.298,382.89,192.672,384.639,192.043,386.769z"/>
	<path style="fill:#FFE89C;" d="M324.172,248.257l-28.551-28.551l31.743-31.743l0.042,0.042c1.38,1.38,2.251,2.973,2.604,4.77
		c0.368,1.798-0.141,3.383-1.521,4.763L315,211.028l15.287,15.287l24.099-24.099c1.316-1.316,2.945-1.756,4.897-1.302
		c1.947,0.445,3.793,1.543,5.528,3.277c1.62,1.62,2.668,3.39,3.15,5.301c0.481,1.925,0.028,3.567-1.352,4.947l-32.011,32.011
		c-1.678,1.678-3.482,2.746-5.435,3.199C327.215,250.097,325.552,249.636,324.172,248.257z"/>
	<path style="fill:#FFE89C;" d="M275.712,296.716l-28.551-28.551l31.736-31.736l0.042,0.042c1.38,1.38,2.258,2.966,2.611,4.763
		c0.361,1.805-0.148,3.39-1.528,4.77l-13.482,13.482l15.287,15.287l24.092-24.092c1.323-1.323,2.952-1.763,4.904-1.309
		c1.939,0.453,3.786,1.55,5.52,3.284c1.62,1.62,2.675,3.383,3.15,5.301c0.481,1.925,0.028,3.567-1.352,4.947l-32.004,32.004
		c-1.685,1.685-3.489,2.754-5.436,3.199C278.749,298.563,277.093,298.096,275.712,296.716z"/>
	<path style="fill:#FFE89C;" d="M238.351,340.461c-0.63,2.13-1.911,4.148-3.829,6.065c-1.918,1.918-3.935,3.199-6.065,3.829
		c-2.13,0.63-3.878,0.255-5.259-1.125l-28.551-28.551l40.872-40.872c0.304,3.729-0.389,7.509-2.074,11.331l30.844,8.903
		c0.715,0.12,1.408,0.516,2.067,1.175c1.734,1.734,2.441,4.324,2.109,7.771c-0.325,3.454-1.536,6.222-3.638,8.324
		c-2.095,2.095-4.466,2.724-7.105,1.883l-36.23-11.599l-5.938,5.938l21.672,21.672C238.606,336.583,238.98,338.331,238.351,340.461z
		"/>
</g>
<g>
</g>
<g>
</g>
<g>
</g>
<g>
</g>
<g>
</g>
<g>
</g>
<g>
</g>
<g>
</g>
<g>
</g>
<g>
</g>
<g>
</g>
<g>
</g>
<g>
</g>
<g>
</g>
<g>
</g>
</svg>
